<?xml version="1.0" encoding="UTF-8" standalone="no"?>
<!-- Created with Inkscape (http://www.inkscape.org/) -->

<svg
   xmlns:dc="http://purl.org/dc/elements/1.1/"
   xmlns:cc="http://creativecommons.org/ns#"
   xmlns:rdf="http://www.w3.org/1999/02/22-rdf-syntax-ns#"
   xmlns:svg="http://www.w3.org/2000/svg"
   xmlns="http://www.w3.org/2000/svg"
   xmlns:sodipodi="http://sodipodi.sourceforge.net/DTD/sodipodi-0.dtd"
   xmlns:inkscape="http://www.inkscape.org/namespaces/inkscape"
   version="1.1"
   id="svg2"
   xml:space="preserve"
   width="994.95465"
   height="1085.62"
   viewBox="0 0 994.95465 1085.62"
   sodipodi:docname="ch6s01 graphic.svg"
   inkscape:version="0.92.2 5c3e80d, 2017-08-06"><metadata
     id="metadata8"><rdf:RDF><cc:Work
         rdf:about=""><dc:format>image/svg+xml</dc:format><dc:type
           rdf:resource="http://purl.org/dc/dcmitype/StillImage" /><dc:title></dc:title><dc:subject><rdf:Bag><rdf:li>container rhel8 podman buildah skopeo runc</rdf:li></rdf:Bag></dc:subject></cc:Work></rdf:RDF></metadata><defs
     id="defs6"><clipPath
       clipPathUnits="userSpaceOnUse"
       id="clipPath30"><path
         d="M 0,814.215 H 746.216 V 0 H 0 Z"
         id="path28"
         inkscape:connector-curvature="0" /></clipPath></defs><sodipodi:namedview
     pagecolor="#ffffff"
     bordercolor="#666666"
     borderopacity="1"
     objecttolerance="10"
     gridtolerance="10"
     guidetolerance="10"
     inkscape:pageopacity="0"
     inkscape:pageshadow="2"
     inkscape:window-width="640"
     inkscape:window-height="480"
     id="namedview4"
     showgrid="false"
     inkscape:zoom="0.2173873"
     inkscape:cx="497.47733"
     inkscape:cy="542.81"
     inkscape:window-x="0"
     inkscape:window-y="0"
     inkscape:window-maximized="0"
     inkscape:current-layer="g10" /><g
     id="g10"
     inkscape:groupmode="layer"
     inkscape:label="ch6s01 graphic"
     transform="matrix(1.3333333,0,0,-1.3333333,0,1085.62)"><path
       d="M 721.128,495.037 H 28.722 v 291.697 h 692.406 z"
       style="fill:#e6e6e6;fill-opacity:1;fill-rule:nonzero;stroke:none"
       id="path12"
       inkscape:connector-curvature="0" /><path
       d="M 29.222,495.537 H 720.628 V 786.234 H 29.222 Z m 692.406,-1 H 28.222 v 292.697 h 693.406 z"
       style="fill:#b4b4b5;fill-opacity:1;fill-rule:nonzero;stroke:none"
       id="path14"
       inkscape:connector-curvature="0" /><path
       d="M 28.722,332.44 H 721.128 V 34.303 H 28.722 Z"
       style="fill:#c3e8f3;fill-opacity:1;fill-rule:nonzero;stroke:none"
       id="path16"
       inkscape:connector-curvature="0" /><path
       d="M 29.222,34.803 H 720.628 V 331.94 H 29.222 Z m 692.406,-1 H 28.222 V 332.94 h 693.406 z"
       style="fill:#b4b4b5;fill-opacity:1;fill-rule:nonzero;stroke:none"
       id="path18"
       inkscape:connector-curvature="0" /><g
       id="g20"
       transform="translate(348.901,61.4229)"><path
         d="M 0,0 V 9.116 H -8.899 V 0 h -4.341 v 21.704 h 4.341 V 13.395 H 0 v 8.309 H 4.341 L 4.341,0 Z"
         style="fill:#4c4d4d;fill-opacity:1;fill-rule:nonzero;stroke:none"
         id="path22"
         inkscape:connector-curvature="0" /></g><g
       id="g24"><g
         id="g26"
         clip-path="url(#clipPath30)"><g
           id="g32"
           transform="translate(367.0963,79.1583)"><path
             d="m 0,0 c -3.503,0 -4.961,-3.008 -4.961,-6.883 0,-3.876 1.458,-6.884 4.961,-6.884 3.504,0 4.961,3.008 4.961,6.884 C 4.961,-3.008 3.504,0 0,0 m 0,-18.076 c -5.922,0 -9.426,4.589 -9.426,11.193 0,6.604 3.504,11.193 9.426,11.193 5.922,0 9.426,-4.589 9.426,-11.193 0,-6.604 -3.504,-11.193 -9.426,-11.193"
             style="fill:#4c4d4d;fill-opacity:1;fill-rule:nonzero;stroke:none"
             id="path34"
             inkscape:connector-curvature="0" /></g><g
           id="g36"
           transform="translate(387.8698,61.0821)"><path
             d="m 0,0 c -3.628,0 -6.79,1.52 -8.434,3.938 l 3.132,2.791 c 1.519,-1.768 3.473,-2.481 5.55,-2.481 2.573,0 3.783,0.713 3.783,2.356 0,1.395 -0.744,2.015 -4.837,2.946 -4,0.929 -6.791,2.201 -6.791,6.479 0,3.939 3.473,6.357 7.752,6.357 3.38,0 5.86,-1.271 7.907,-3.41 L 4.929,15.937 C 3.535,17.363 1.984,18.169 0,18.169 c -2.325,0 -3.101,-0.992 -3.101,-1.953 0,-1.364 0.931,-1.798 4.372,-2.605 C 4.712,12.805 8.527,11.627 8.527,6.914 8.527,2.79 5.921,0 0,0"
             style="fill:#4c4d4d;fill-opacity:1;fill-rule:nonzero;stroke:none"
             id="path38"
             inkscape:connector-curvature="0" /></g><g
           id="g40"
           transform="translate(409.3566,78.8477)"><path
             d="M 0,0 V -17.425 H -4.341 V 0 h -6.232 V 4.279 H 6.231 L 6.231,0 Z"
             style="fill:#4c4d4d;fill-opacity:1;fill-rule:nonzero;stroke:none"
             id="path42"
             inkscape:connector-curvature="0" /></g><g
           id="g44"
           transform="translate(280.1315,191.046)"><path
             d="M 0,0 V 33.313"
             style="fill:#ffffff;fill-opacity:1;fill-rule:nonzero;stroke:none"
             id="path46"
             inkscape:connector-curvature="0" /></g><path
           d="m 281.132,223.046 h -2 v 1.312 h 2 z m 0,-8 h -2 v 4 h 2 z m 0,-8 h -2 v 4 h 2 z m 0,-8 h -2 v 4 h 2 z m 0,-8 h -2 v 4 h 2 z"
           style="fill:#0e88ca;fill-opacity:1;fill-rule:nonzero;stroke:none"
           id="path48"
           inkscape:connector-curvature="0" /><g
           id="g50"
           transform="translate(472.6505,191.046)"><path
             d="M 0,0 V 33.313"
             style="fill:#ffffff;fill-opacity:1;fill-rule:nonzero;stroke:none"
             id="path52"
             inkscape:connector-curvature="0" /></g><path
           d="m 473.651,223.046 h -2 v 1.312 h 2 z m 0,-8 h -2 v 4 h 2 z m 0,-8 h -2 v 4 h 2 z m 0,-8 h -2 v 4 h 2 z m 0,-8 h -2 v 4 h 2 z"
           style="fill:#0e88ca;fill-opacity:1;fill-rule:nonzero;stroke:none"
           id="path54"
           inkscape:connector-curvature="0" /><g
           id="g56"
           transform="translate(199.8234,332.4395)"><path
             d="M 0,0 V 162.597"
             style="fill:#ffffff;fill-opacity:1;fill-rule:nonzero;stroke:none"
             id="path58"
             inkscape:connector-curvature="0" /></g><path
           d="m 200.823,492.44 h -2 v 2.597 h 2 z m 0,-8 h -2 v 4 h 2 z m 0,-8 h -2 v 4 h 2 z m 0,-8 h -2 v 4 h 2 z m 0,-8 h -2 v 4 h 2 z m 0,-8 h -2 v 4 h 2 z m 0,-8 h -2 v 4 h 2 z m 0,-8 h -2 v 4 h 2 z m 0,-8 h -2 v 4 h 2 z m 0,-8 h -2 v 4 h 2 z m 0,-8 h -2 v 4 h 2 z m 0,-8 h -2 v 4 h 2 z m 0,-8 h -2 v 4 h 2 z m 0,-8 h -2 v 4 h 2 z m 0,-8 h -2 v 4 h 2 z m 0,-8 h -2 v 4 h 2 z m 0,-8 h -2 v 4 h 2 z m 0,-8 h -2 v 4 h 2 z m 0,-8 h -2 v 4 h 2 z m 0,-8 h -2 v 4 h 2 z m 0,-8 h -2 v 4 h 2 z"
           style="fill:#b4b4b5;fill-opacity:1;fill-rule:nonzero;stroke:none"
           id="path60"
           inkscape:connector-curvature="0" /><g
           id="g62"
           transform="translate(552.9592,332.4395)"><path
             d="M 0,0 V 162.597"
             style="fill:#ffffff;fill-opacity:1;fill-rule:nonzero;stroke:none"
             id="path64"
             inkscape:connector-curvature="0" /></g><path
           d="m 553.959,492.44 h -2 v 2.597 h 2 z m 0,-8 h -2 v 4 h 2 z m 0,-8 h -2 v 4 h 2 z m 0,-8 h -2 v 4 h 2 z m 0,-8 h -2 v 4 h 2 z m 0,-8 h -2 v 4 h 2 z m 0,-8 h -2 v 4 h 2 z m 0,-8 h -2 v 4 h 2 z m 0,-8 h -2 v 4 h 2 z m 0,-8 h -2 v 4 h 2 z m 0,-8 h -2 v 4 h 2 z m 0,-8 h -2 v 4 h 2 z m 0,-8 h -2 v 4 h 2 z m 0,-8 h -2 v 4 h 2 z m 0,-8 h -2 v 4 h 2 z m 0,-8 h -2 v 4 h 2 z m 0,-8 h -2 v 4 h 2 z m 0,-8 h -2 v 4 h 2 z m 0,-8 h -2 v 4 h 2 z m 0,-8 h -2 v 4 h 2 z m 0,-8 h -2 v 4 h 2 z"
           style="fill:#b4b4b5;fill-opacity:1;fill-rule:nonzero;stroke:none"
           id="path66"
           inkscape:connector-curvature="0" /><path
           d="M 52.615,455.572 H 347.032 V 371.905 H 52.615 Z"
           style="fill:#ffffff;fill-opacity:1;fill-rule:nonzero;stroke:none"
           id="path68"
           inkscape:connector-curvature="0" /><path
           d="m 53.615,372.904 h 292.417 v 81.667 H 53.615 Z m 294.417,-2 H 51.615 v 85.667 h 296.417 z"
           style="fill:#0e88ca;fill-opacity:1;fill-rule:nonzero;stroke:none"
           id="path70"
           inkscape:connector-curvature="0" /><g
           id="g72"
           transform="translate(156.922,417.2291)"><path
             d="M 0,0 C -1.52,0 -2.853,-1.023 -3.689,-2.077 V -8.93 c 0.712,-0.962 2.201,-2.139 3.813,-2.139 2.294,0 3.535,1.736 3.535,5.177 C 3.659,-1.799 2.356,0 0,0 m 0.434,-14.015 c -1.643,0 -3.194,0.869 -4.093,1.861 v -1.52 H -6.821 V 7.286 L -3.659,8.93 V 1.054 c 1.179,1.086 2.543,1.891 4.248,1.891 3.504,0 6.264,-2.542 6.264,-8.743 0,-5.582 -3.04,-8.217 -6.419,-8.217"
             style="fill:#0e88ca;fill-opacity:1;fill-rule:nonzero;stroke:none"
             id="path74"
             inkscape:connector-curvature="0" /></g><g
           id="g76"
           transform="translate(177.5373,403.5552)"><path
             d="m 0,0 v 1.55 c -0.806,-1.178 -2.418,-1.891 -4.093,-1.891 -3.782,0 -5.798,2.481 -5.798,7.286 v 9.333 h 3.194 V 7.069 c 0,-3.287 1.24,-4.465 3.348,-4.465 2.14,0 3.349,1.52 3.349,4.155 v 9.519 H 3.194 V 0 Z"
             style="fill:#0e88ca;fill-opacity:1;fill-rule:nonzero;stroke:none"
             id="path78"
             inkscape:connector-curvature="0" /></g><path
           d="m 185.596,419.834 h 3.193 v -16.278 h -3.193 z m 1.612,2.108 c -1.147,0 -2.077,0.93 -2.077,2.046 0,1.147 0.93,2.078 2.077,2.078 1.116,0 2.046,-0.931 2.046,-2.078 0,-1.116 -0.93,-2.046 -2.046,-2.046"
           style="fill:#0e88ca;fill-opacity:1;fill-rule:nonzero;stroke:none"
           id="path80"
           inkscape:connector-curvature="0" /><g
           id="g82"
           transform="translate(193.8107,403.5552)"><path
             d="m 0,0 v 20.929 l 3.193,1.675 V 0 Z"
             style="fill:#0e88ca;fill-opacity:1;fill-rule:nonzero;stroke:none"
             id="path84"
             inkscape:connector-curvature="0" /></g><g
           id="g86"
           transform="translate(211.6994,415.0894)"><path
             d="m 0,0 c -0.713,0.961 -2.202,2.14 -3.814,2.14 -2.294,0 -3.535,-1.737 -3.535,-5.179 0,-4.092 1.303,-5.891 3.659,-5.891 1.519,0 2.853,1.024 3.69,2.077 z m -0.031,-11.534 v 1.55 c -1.178,-1.085 -2.543,-1.891 -4.248,-1.891 -3.504,0 -6.263,2.542 -6.263,8.743 0,5.581 3.038,8.217 6.418,8.217 1.644,0 3.193,-0.868 4.093,-1.86 v 6.201 l 3.162,1.643 v -22.603 z"
             style="fill:#0e88ca;fill-opacity:1;fill-rule:nonzero;stroke:none"
             id="path88"
             inkscape:connector-curvature="0" /></g><g
           id="g90"
           transform="translate(228.8732,410.5005)"><path
             d="m 0,0 c -0.868,0.435 -1.984,0.713 -3.721,0.713 -2.047,0 -3.348,-0.93 -3.348,-2.418 0,-1.612 1.023,-2.698 3.131,-2.698 1.706,0 3.194,1.054 3.938,2.078 z m 0,-6.945 v 1.612 c -1.116,-1.116 -2.698,-1.953 -4.465,-1.953 -2.636,0 -5.643,1.488 -5.643,5.488 0,3.627 2.791,5.271 6.48,5.271 1.52,0 2.729,-0.217 3.628,-0.62 v 1.209 c 0,1.767 -1.085,2.759 -3.07,2.759 -1.674,0 -2.976,-0.31 -4.247,-1.023 l -1.241,2.419 c 1.55,0.961 3.287,1.457 5.581,1.457 3.628,0 6.108,-1.768 6.108,-5.457 V -6.945 Z"
             style="fill:#0e88ca;fill-opacity:1;fill-rule:nonzero;stroke:none"
             id="path92"
             inkscape:connector-curvature="0" /></g><g
           id="g94"
           transform="translate(246.4806,403.5552)"><path
             d="m 0,0 v 9.209 c 0,3.286 -1.24,4.465 -3.349,4.465 -2.139,0 -3.348,-1.52 -3.348,-4.155 V 0 h -3.194 v 20.929 l 3.194,1.675 v -7.876 c 0.806,1.178 2.419,1.891 4.093,1.891 3.783,0 5.798,-2.48 5.798,-7.286 V 0 Z"
             style="fill:#0e88ca;fill-opacity:1;fill-rule:nonzero;stroke:none"
             id="path96"
             inkscape:connector-curvature="0" /></g><path
           d="M 405.75,455.572 H 700.167 V 371.905 H 405.75 Z"
           style="fill:#ffffff;fill-opacity:1;fill-rule:nonzero;stroke:none"
           id="path98"
           inkscape:connector-curvature="0" /><path
           d="m 406.75,372.904 h 292.417 v 81.667 H 406.75 Z m 294.417,-2 H 404.75 v 85.667 h 296.417 z"
           style="fill:#0e88ca;fill-opacity:1;fill-rule:nonzero;stroke:none"
           id="path100"
           inkscape:connector-curvature="0" /><g
           id="g102"
           transform="translate(509.9474,403.2139)"><path
             d="m 0,0 c -2.201,0 -4.589,0.868 -6.232,2.077 l 1.457,2.419 c 1.519,-1.055 3.224,-1.613 4.744,-1.613 2.015,0 2.976,0.651 2.976,1.799 0,1.24 -1.425,1.829 -3.782,2.728 -3.504,1.364 -4.775,2.543 -4.775,5.116 0,2.914 2.295,4.434 5.55,4.434 2.046,0 4.062,-0.744 5.519,-1.798 l -1.395,-2.45 c -1.333,0.931 -2.666,1.395 -4.217,1.395 -1.55,0 -2.233,-0.62 -2.233,-1.488 0,-0.806 0.559,-1.395 3.008,-2.356 C 4.248,8.867 6.108,7.875 6.108,4.806 6.108,1.209 3.193,0 0,0"
             style="fill:#0e88ca;fill-opacity:1;fill-rule:nonzero;stroke:none"
             id="path104"
             inkscape:connector-curvature="0" /></g><g
           id="g106"
           transform="translate(529.4162,403.5547)"><path
             d="M 0,0 -3.597,8.093 -6.077,4.806 V 0 h -3.194 v 20.929 l 3.194,1.675 V 12.341 c 0,-0.992 -0.031,-2.667 -0.031,-3.473 0.433,0.651 1.271,1.891 1.797,2.666 l 3.38,4.744 H 2.697 L -1.427,10.821 3.473,0 Z"
             style="fill:#0e88ca;fill-opacity:1;fill-rule:nonzero;stroke:none"
             id="path108"
             inkscape:connector-curvature="0" /></g><g
           id="g110"
           transform="translate(542.1281,417.1358)"><path
             d="m 0,0 c -2.418,0 -3.906,-2.14 -3.906,-5.364 0,-3.566 1.642,-5.52 4.061,-5.52 2.418,0 4,2.45 4,5.427 C 4.155,-2.14 2.573,0 0,0 m 0.031,-13.922 c -4.093,0 -7.162,3.379 -7.162,8.465 0,5.332 3.162,8.495 7.255,8.495 4.155,0 7.256,-3.317 7.256,-8.402 0,-5.396 -3.163,-8.558 -7.349,-8.558"
             style="fill:#0e88ca;fill-opacity:1;fill-rule:nonzero;stroke:none"
             id="path112"
             inkscape:connector-curvature="0" /></g><g
           id="g114"
           transform="translate(560.2629,417.2286)"><path
             d="M 0,0 C -1.519,0 -2.853,-1.023 -3.689,-2.077 V -8.93 c 0.712,-0.962 2.201,-2.139 3.813,-2.139 2.295,0 3.535,1.736 3.535,5.177 C 3.659,-1.799 2.356,0 0,0 m 0.435,-14.015 c -1.644,0 -3.194,0.869 -4.093,1.861 v -5.861 l -3.163,-1.643 V 2.604 h 3.163 v -1.55 c 1.178,1.086 2.542,1.891 4.248,1.891 3.503,0 6.263,-2.542 6.263,-8.743 0,-5.582 -3.039,-8.217 -6.418,-8.217"
             style="fill:#0e88ca;fill-opacity:1;fill-rule:nonzero;stroke:none"
             id="path116"
             inkscape:connector-curvature="0" /></g><g
           id="g118"
           transform="translate(577.2512,417.2901)"><path
             d="M 0,0 C -2.14,0 -3.441,-1.488 -3.721,-4.093 H 3.845 C 3.689,-1.86 2.636,0 0,0 m 6.977,-6.729 h -10.76 c 0.342,-3.13 2.108,-4.464 4.093,-4.464 1.364,0 2.45,0.496 3.535,1.302 l 1.891,-2.047 c -1.426,-1.363 -3.132,-2.138 -5.612,-2.138 -3.813,0 -7.038,3.069 -7.038,8.465 0,5.518 2.914,8.495 7.131,8.495 4.62,0 6.852,-3.752 6.852,-8.155 0,-0.588 -0.062,-1.116 -0.092,-1.458"
             style="fill:#0e88ca;fill-opacity:1;fill-rule:nonzero;stroke:none"
             id="path120"
             inkscape:connector-curvature="0" /></g><g
           id="g122"
           transform="translate(594.6418,417.1358)"><path
             d="m 0,0 c -2.419,0 -3.907,-2.14 -3.907,-5.364 0,-3.566 1.643,-5.52 4.061,-5.52 2.419,0 4,2.45 4,5.427 C 4.154,-2.14 2.573,0 0,0 m 0.03,-13.922 c -4.092,0 -7.162,3.379 -7.162,8.465 0,5.332 3.163,8.495 7.256,8.495 4.154,0 7.255,-3.317 7.255,-8.402 0,-5.396 -3.162,-8.558 -7.349,-8.558"
             style="fill:#0e88ca;fill-opacity:1;fill-rule:nonzero;stroke:none"
             id="path124"
             inkscape:connector-curvature="0" /></g><path
           d="M 52.615,765.172 H 347.032 V 516.597 H 52.615 Z"
           style="fill:#ffffff;fill-opacity:1;fill-rule:nonzero;stroke:none"
           id="path126"
           inkscape:connector-curvature="0" /><g
           id="g128"
           transform="translate(81.192,601.1231)"><path
             d="M 0,0 C -1.52,0 -2.853,-1.023 -3.689,-2.077 V -8.93 c 0.712,-0.962 2.201,-2.139 3.813,-2.139 2.294,0 3.535,1.736 3.535,5.177 C 3.659,-1.799 2.356,0 0,0 m 0.434,-14.015 c -1.643,0 -3.194,0.869 -4.093,1.861 v -5.861 l -3.162,-1.643 V 2.604 h 3.162 v -1.55 c 1.179,1.086 2.543,1.891 4.248,1.891 3.504,0 6.264,-2.542 6.264,-8.743 0,-5.582 -3.04,-8.217 -6.419,-8.217"
             style="fill:#4c4d4d;fill-opacity:1;fill-rule:nonzero;stroke:none"
             id="path130"
             inkscape:connector-curvature="0" /></g><g
           id="g132"
           transform="translate(101.8073,587.4493)"><path
             d="m 0,0 v 1.55 c -0.806,-1.178 -2.418,-1.891 -4.093,-1.891 -3.782,0 -5.798,2.481 -5.798,7.286 v 9.333 h 3.194 V 7.069 c 0,-3.287 1.24,-4.465 3.348,-4.465 2.14,0 3.349,1.52 3.349,4.155 v 9.519 H 3.194 V 0 Z"
             style="fill:#4c4d4d;fill-opacity:1;fill-rule:nonzero;stroke:none"
             id="path134"
             inkscape:connector-curvature="0" /></g><g
           id="g136"
           transform="translate(116.5319,601.1231)"><path
             d="M 0,0 C -1.52,0 -2.853,-1.023 -3.689,-2.077 V -8.93 c 0.712,-0.962 2.201,-2.139 3.813,-2.139 2.294,0 3.535,1.736 3.535,5.177 C 3.659,-1.799 2.356,0 0,0 m 0.434,-14.015 c -1.643,0 -3.194,0.869 -4.093,1.861 v -1.52 H -6.821 V 7.286 L -3.659,8.93 V 1.054 c 1.179,1.086 2.543,1.891 4.248,1.891 3.504,0 6.264,-2.542 6.264,-8.743 0,-5.582 -3.04,-8.217 -6.419,-8.217"
             style="fill:#4c4d4d;fill-opacity:1;fill-rule:nonzero;stroke:none"
             id="path138"
             inkscape:connector-curvature="0" /></g><g
           id="g140"
           transform="translate(127.5358,587.4493)"><path
             d="m 0,0 v 20.929 l 3.193,1.675 V 0 Z"
             style="fill:#4c4d4d;fill-opacity:1;fill-rule:nonzero;stroke:none"
             id="path142"
             inkscape:connector-curvature="0" /></g><path
           d="m 135.751,603.728 h 3.193 V 587.45 h -3.193 z m 1.612,2.108 c -1.148,0 -2.078,0.93 -2.078,2.046 0,1.147 0.93,2.078 2.078,2.078 1.116,0 2.046,-0.931 2.046,-2.078 0,-1.116 -0.93,-2.046 -2.046,-2.046"
           style="fill:#4c4d4d;fill-opacity:1;fill-rule:nonzero;stroke:none"
           id="path144"
           inkscape:connector-curvature="0" /><g
           id="g146"
           transform="translate(154.0421,599.046)"><path
             d="m 0,0 c -1.333,1.363 -2.511,1.984 -3.969,1.984 -2.325,0 -3.814,-2.078 -3.814,-5.395 0,-3.193 1.365,-5.488 3.908,-5.488 1.519,0 2.417,0.682 3.689,2.015 L 1.86,-8.899 c -1.271,-1.613 -2.883,-3.039 -5.829,-3.039 -3.968,0 -7.038,3.349 -7.038,8.434 0,5.395 3.163,8.526 7.132,8.526 2.387,0 4.247,-0.96 5.766,-2.759 z"
             style="fill:#4c4d4d;fill-opacity:1;fill-rule:nonzero;stroke:none"
             id="path148"
             inkscape:connector-curvature="0" /></g><g
           id="g150"
           transform="translate(177.694,594.3946)"><path
             d="m 0,0 c -0.868,0.435 -1.984,0.713 -3.721,0.713 -2.046,0 -3.348,-0.93 -3.348,-2.418 0,-1.612 1.023,-2.698 3.131,-2.698 1.706,0 3.194,1.054 3.938,2.078 z m 0,-6.945 v 1.612 c -1.116,-1.116 -2.697,-1.953 -4.465,-1.953 -2.635,0 -5.642,1.488 -5.642,5.488 0,3.627 2.79,5.271 6.48,5.271 1.519,0 2.728,-0.217 3.627,-0.62 v 1.209 c 0,1.767 -1.085,2.759 -3.069,2.759 -1.675,0 -2.977,-0.31 -4.248,-1.023 l -1.241,2.419 c 1.551,0.961 3.287,1.457 5.581,1.457 3.628,0 6.109,-1.768 6.109,-5.457 V -6.945 Z"
             style="fill:#4c4d4d;fill-opacity:1;fill-rule:nonzero;stroke:none"
             id="path152"
             inkscape:connector-curvature="0" /></g><g
           id="g154"
           transform="translate(195.3024,587.4493)"><path
             d="m 0,0 v 9.209 c 0,3.286 -1.24,4.465 -3.349,4.465 -2.139,0 -3.348,-1.52 -3.348,-4.155 V 0 h -3.194 v 16.278 h 3.194 v -1.55 c 0.805,1.178 2.418,1.891 4.093,1.891 3.782,0 5.797,-2.48 5.797,-7.286 L 3.193,0 Z"
             style="fill:#4c4d4d;fill-opacity:1;fill-rule:nonzero;stroke:none"
             id="path156"
             inkscape:connector-curvature="0" /></g><g
           id="g158"
           transform="translate(212.9098,598.9835)"><path
             d="m 0,0 c -0.713,0.961 -2.201,2.14 -3.813,2.14 -2.295,0 -3.535,-1.737 -3.535,-5.179 0,-4.092 1.302,-5.891 3.659,-5.891 1.519,0 2.852,1.024 3.689,2.077 z m -0.031,-11.534 v 1.55 c -1.178,-1.085 -2.542,-1.891 -4.247,-1.891 -3.504,0 -6.264,2.542 -6.264,8.743 0,5.581 3.039,8.217 6.418,8.217 1.644,0 3.194,-0.868 4.093,-1.86 v 6.201 l 3.163,1.643 v -22.603 z"
             style="fill:#4c4d4d;fill-opacity:1;fill-rule:nonzero;stroke:none"
             id="path160"
             inkscape:connector-curvature="0" /></g><g
           id="g162"
           transform="translate(235.942,601.1231)"><path
             d="M 0,0 C -1.52,0 -2.853,-1.023 -3.689,-2.077 V -8.93 c 0.712,-0.962 2.201,-2.139 3.813,-2.139 2.294,0 3.535,1.736 3.535,5.177 C 3.659,-1.799 2.356,0 0,0 m 0.434,-14.015 c -1.643,0 -3.194,0.869 -4.093,1.861 v -5.861 l -3.162,-1.643 V 2.604 h 3.162 v -1.55 c 1.179,1.086 2.543,1.891 4.248,1.891 3.504,0 6.264,-2.542 6.264,-8.743 0,-5.582 -3.04,-8.217 -6.419,-8.217"
             style="fill:#4c4d4d;fill-opacity:1;fill-rule:nonzero;stroke:none"
             id="path164"
             inkscape:connector-curvature="0" /></g><g
           id="g166"
           transform="translate(255.6276,600.3477)"><path
             d="m 0,0 c -0.683,0.372 -1.396,0.589 -2.45,0.589 -2.015,0 -3.194,-1.426 -3.194,-4.186 v -9.301 H -8.837 V 3.38 h 3.193 V 1.829 c 0.745,1.086 2.109,1.892 3.721,1.892 1.303,0 2.109,-0.248 2.76,-0.683 z"
             style="fill:#4c4d4d;fill-opacity:1;fill-rule:nonzero;stroke:none"
             id="path168"
             inkscape:connector-curvature="0" /></g><path
           d="m 259.904,603.728 h 3.193 V 587.45 h -3.193 z m 1.612,2.108 c -1.147,0 -2.077,0.93 -2.077,2.046 0,1.147 0.93,2.078 2.077,2.078 1.116,0 2.046,-0.931 2.046,-2.078 0,-1.116 -0.93,-2.046 -2.046,-2.046"
           style="fill:#4c4d4d;fill-opacity:1;fill-rule:nonzero;stroke:none"
           id="path170"
           inkscape:connector-curvature="0" /><g
           id="g172"
           transform="translate(275.653,587.4493)"><path
             d="m 0,0 h -3.193 l -5.829,16.278 h 3.348 L -2.76,7.441 c 0.528,-1.581 0.992,-3.1 1.21,-4 0.186,0.9 0.62,2.419 1.116,4 l 2.79,8.837 h 3.38 z"
             style="fill:#4c4d4d;fill-opacity:1;fill-rule:nonzero;stroke:none"
             id="path174"
             inkscape:connector-curvature="0" /></g><g
           id="g176"
           transform="translate(293.2282,594.3946)"><path
             d="m 0,0 c -0.868,0.435 -1.984,0.713 -3.721,0.713 -2.047,0 -3.348,-0.93 -3.348,-2.418 0,-1.612 1.023,-2.698 3.131,-2.698 1.706,0 3.194,1.054 3.938,2.078 z m 0,-6.945 v 1.612 c -1.116,-1.116 -2.698,-1.953 -4.465,-1.953 -2.636,0 -5.643,1.488 -5.643,5.488 0,3.627 2.791,5.271 6.48,5.271 1.52,0 2.729,-0.217 3.628,-0.62 v 1.209 c 0,1.767 -1.085,2.759 -3.07,2.759 -1.674,0 -2.976,-0.31 -4.247,-1.023 l -1.241,2.419 c 1.55,0.961 3.287,1.457 5.581,1.457 3.628,0 6.108,-1.768 6.108,-5.457 V -6.945 Z"
             style="fill:#4c4d4d;fill-opacity:1;fill-rule:nonzero;stroke:none"
             id="path178"
             inkscape:connector-curvature="0" /></g><g
           id="g180"
           transform="translate(308.7272,587.8526)"><path
             d="m 0,0 c -0.775,-0.435 -1.86,-0.744 -3.131,-0.744 -2.264,0 -3.659,1.394 -3.659,4.309 v 9.395 h -2.325 v 2.915 h 2.325 v 4.65 l 3.132,1.675 v -6.325 h 4.03 V 12.96 h -4.03 V 4.123 c 0,-1.519 0.496,-1.953 1.674,-1.953 0.837,0 1.767,0.31 2.356,0.651 z"
             style="fill:#4c4d4d;fill-opacity:1;fill-rule:nonzero;stroke:none"
             id="path182"
             inkscape:connector-curvature="0" /></g><g
           id="g184"
           transform="translate(318.9562,601.1846)"><path
             d="M 0,0 C -2.139,0 -3.442,-1.488 -3.721,-4.093 H 3.845 C 3.69,-1.86 2.635,0 0,0 M 6.976,-6.729 H -3.783 c 0.341,-3.13 2.109,-4.464 4.093,-4.464 1.364,0 2.449,0.496 3.535,1.302 l 1.891,-2.047 c -1.426,-1.363 -3.132,-2.138 -5.612,-2.138 -3.814,0 -7.039,3.069 -7.039,8.465 0,5.518 2.915,8.495 7.132,8.495 4.62,0 6.852,-3.752 6.852,-8.155 0,-0.588 -0.062,-1.116 -0.093,-1.458"
             style="fill:#4c4d4d;fill-opacity:1;fill-rule:nonzero;stroke:none"
             id="path186"
             inkscape:connector-curvature="0" /></g><g
           id="g188"
           transform="translate(142.817,563.1475)"><path
             d="m 0,0 c -0.683,0.372 -1.396,0.589 -2.45,0.589 -2.015,0 -3.194,-1.426 -3.194,-4.186 v -9.301 H -8.837 V 3.38 h 3.193 V 1.829 c 0.745,1.085 2.109,1.892 3.721,1.892 1.303,0 2.109,-0.248 2.76,-0.682 z"
             style="fill:#4c4d4d;fill-opacity:1;fill-rule:nonzero;stroke:none"
             id="path190"
             inkscape:connector-curvature="0" /></g><g
           id="g192"
           transform="translate(152.3053,563.9844)"><path
             d="M 0,0 C -2.14,0 -3.441,-1.488 -3.721,-4.093 H 3.845 C 3.689,-1.86 2.636,0 0,0 m 6.977,-6.728 h -10.76 c 0.342,-3.131 2.109,-4.464 4.093,-4.464 1.364,0 2.45,0.496 3.535,1.301 l 1.891,-2.046 c -1.426,-1.365 -3.132,-2.139 -5.612,-2.139 -3.813,0 -7.038,3.069 -7.038,8.464 0,5.519 2.914,8.496 7.131,8.496 4.62,0 6.852,-3.752 6.852,-8.155 0,-0.589 -0.062,-1.116 -0.092,-1.457"
             style="fill:#4c4d4d;fill-opacity:1;fill-rule:nonzero;stroke:none"
             id="path194"
             inkscape:connector-curvature="0" /></g><g
           id="g196"
           transform="translate(173.1686,561.7833)"><path
             d="m 0,0 c -0.713,0.961 -2.202,2.14 -3.814,2.14 -2.294,0 -3.535,-1.737 -3.535,-5.178 0,-4.094 1.303,-5.892 3.659,-5.892 1.519,0 2.853,1.024 3.69,2.077 z m -4.558,-17.519 -1.086,2.419 c 4.589,0.217 5.582,1.457 5.582,4.837 v 0.28 c -1.178,-1.086 -2.512,-1.892 -4.217,-1.892 -3.473,0 -6.263,2.542 -6.263,8.743 0,5.581 3.069,8.217 6.418,8.217 1.644,0 3.193,-0.868 4.062,-1.86 V 4.744 H 3.131 V -9.983 c 0,-4.961 -1.798,-7.349 -7.689,-7.536"
             style="fill:#4c4d4d;fill-opacity:1;fill-rule:nonzero;stroke:none"
             id="path198"
             inkscape:connector-curvature="0" /></g><path
           d="m 181.165,566.527 h 3.193 v -16.278 h -3.193 z m 1.612,2.109 c -1.147,0 -2.078,0.929 -2.078,2.046 0,1.147 0.931,2.077 2.078,2.077 1.116,0 2.046,-0.93 2.046,-2.077 0,-1.117 -0.93,-2.046 -2.046,-2.046"
           style="fill:#4c4d4d;fill-opacity:1;fill-rule:nonzero;stroke:none"
           id="path200"
           inkscape:connector-curvature="0" /><g
           id="g202"
           transform="translate(194.4953,549.9083)"><path
             d="m 0,0 c -2.202,0 -4.589,0.868 -6.232,2.077 l 1.457,2.418 c 1.52,-1.054 3.225,-1.611 4.744,-1.611 2.015,0 2.977,0.65 2.977,1.798 0,1.24 -1.427,1.829 -3.783,2.728 -3.504,1.364 -4.775,2.542 -4.775,5.116 0,2.914 2.294,4.434 5.55,4.434 2.046,0 4.062,-0.744 5.519,-1.799 L 4.062,12.712 c -1.333,0.931 -2.667,1.395 -4.217,1.395 -1.551,0 -2.232,-0.62 -2.232,-1.488 0,-0.806 0.557,-1.395 3.007,-2.356 C 4.248,8.867 6.108,7.875 6.108,4.806 6.108,1.209 3.194,0 0,0"
             style="fill:#4c4d4d;fill-opacity:1;fill-rule:nonzero;stroke:none"
             id="path204"
             inkscape:connector-curvature="0" /></g><g
           id="g206"
           transform="translate(212.1647,550.6524)"><path
             d="m 0,0 c -0.775,-0.435 -1.86,-0.744 -3.131,-0.744 -2.264,0 -3.659,1.395 -3.659,4.309 v 9.395 h -2.325 v 2.915 h 2.325 v 4.65 l 3.132,1.675 v -6.325 h 4.03 V 12.96 h -4.03 V 4.124 c 0,-1.52 0.496,-1.954 1.674,-1.954 0.837,0 1.767,0.31 2.356,0.651 z"
             style="fill:#4c4d4d;fill-opacity:1;fill-rule:nonzero;stroke:none"
             id="path208"
             inkscape:connector-curvature="0" /></g><g
           id="g210"
           transform="translate(225.7126,563.1475)"><path
             d="m 0,0 c -0.683,0.372 -1.396,0.589 -2.45,0.589 -2.015,0 -3.194,-1.426 -3.194,-4.186 v -9.301 H -8.837 V 3.38 h 3.193 V 1.829 c 0.745,1.085 2.109,1.892 3.721,1.892 1.303,0 2.109,-0.248 2.76,-0.682 z"
             style="fill:#4c4d4d;fill-opacity:1;fill-rule:nonzero;stroke:none"
             id="path212"
             inkscape:connector-curvature="0" /></g><path
           d="m 229.989,566.527 h 3.193 v -16.278 h -3.193 z m 1.612,2.109 c -1.147,0 -2.077,0.929 -2.077,2.046 0,1.147 0.93,2.077 2.077,2.077 1.116,0 2.046,-0.93 2.046,-2.077 0,-1.117 -0.93,-2.046 -2.046,-2.046"
           style="fill:#4c4d4d;fill-opacity:1;fill-rule:nonzero;stroke:none"
           id="path214"
           inkscape:connector-curvature="0" /><g
           id="g216"
           transform="translate(244.1877,563.9844)"><path
             d="M 0,0 C -2.139,0 -3.442,-1.488 -3.721,-4.093 H 3.845 C 3.69,-1.86 2.635,0 0,0 M 6.976,-6.728 H -3.783 c 0.341,-3.131 2.109,-4.464 4.093,-4.464 1.364,0 2.449,0.496 3.535,1.301 l 1.891,-2.046 c -1.426,-1.365 -3.132,-2.139 -5.612,-2.139 -3.814,0 -7.039,3.069 -7.039,8.464 0,5.519 2.915,8.496 7.132,8.496 4.62,0 6.852,-3.752 6.852,-8.155 0,-0.589 -0.062,-1.116 -0.093,-1.457"
             style="fill:#4c4d4d;fill-opacity:1;fill-rule:nonzero;stroke:none"
             id="path218"
             inkscape:connector-curvature="0" /></g><g
           id="g220"
           transform="translate(260.1828,549.9083)"><path
             d="m 0,0 c -2.202,0 -4.589,0.868 -6.232,2.077 l 1.457,2.418 c 1.52,-1.054 3.225,-1.611 4.744,-1.611 2.015,0 2.977,0.65 2.977,1.798 0,1.24 -1.427,1.829 -3.783,2.728 -3.504,1.364 -4.775,2.542 -4.775,5.116 0,2.914 2.294,4.434 5.55,4.434 2.046,0 4.062,-0.744 5.519,-1.799 L 4.062,12.712 c -1.333,0.931 -2.667,1.395 -4.217,1.395 -1.551,0 -2.232,-0.62 -2.232,-1.488 0,-0.806 0.557,-1.395 3.007,-2.356 C 4.248,8.867 6.108,7.875 6.108,4.806 6.108,1.209 3.194,0 0,0"
             style="fill:#4c4d4d;fill-opacity:1;fill-rule:nonzero;stroke:none"
             id="path222"
             inkscape:connector-curvature="0" /></g><g
           id="g224"
           transform="translate(170.9142,675.8121)"><path
             d="m 0,0 c -0.032,0 -0.065,0.003 -0.097,0.007 -5.702,0.805 -10.539,1.826 -14.38,3.032 -0.365,0.113 -0.567,0.503 -0.451,0.868 0.114,0.364 0.497,0.569 0.868,0.451 C -10.293,3.176 -5.532,2.172 0.098,1.377 0.476,1.325 0.739,0.973 0.685,0.595 0.635,0.249 0.34,0 0,0"
             style="fill:#4c4d4d;fill-opacity:1;fill-rule:nonzero;stroke:none"
             id="path226"
             inkscape:connector-curvature="0" /></g><g
           id="g228"
           transform="translate(199.8224,673.6163)"><path
             d="m 0,0 c -5.795,0 -11.489,0.2 -16.922,0.591 -0.57,0.042 -1.001,0.539 -0.959,1.111 0.04,0.573 0.541,0.996 1.111,0.961 C -11.389,2.275 -5.746,2.077 0,2.077 c 17.691,0 33.923,1.866 43.422,4.989 0.544,0.18 1.132,-0.117 1.311,-0.662 C 44.912,5.859 44.617,5.273 44.07,5.095 34.375,1.904 17.9,0 0,0"
             style="fill:#4c4d4d;fill-opacity:1;fill-rule:nonzero;stroke:none"
             id="path230"
             inkscape:connector-curvature="0" /></g><g
           id="g232"
           transform="translate(199.8224,695.1358)"><path
             d="m 0,0 c -31.309,0 -50.534,-5.561 -50.534,-9.548 v -31.737 c 0,-3.988 19.225,-9.549 50.534,-9.549 31.311,0 50.537,5.562 50.537,9.549 V -9.548 C 50.537,-5.561 31.311,0 0,0 m 0,-53.604 c -26.488,0 -53.303,4.231 -53.303,12.318 v 31.738 c 0,8.086 26.815,12.317 53.303,12.317 26.491,0 53.305,-4.231 53.305,-12.317 V -41.285 C 53.305,-49.373 26.491,-53.604 0,-53.604"
             style="fill:#4c4d4d;fill-opacity:1;fill-rule:nonzero;stroke:none"
             id="path234"
             inkscape:connector-curvature="0" /></g><path
           d="M 405.75,765.172 H 700.167 V 516.597 H 405.75 Z"
           style="fill:#ffffff;fill-opacity:1;fill-rule:nonzero;stroke:none"
           id="path236"
           inkscape:connector-curvature="0" /><g
           id="g238"
           transform="translate(522.0705,587.4493)"><path
             d="m 0,0 v 20.929 l 3.193,1.675 V 0 Z"
             style="fill:#4c4d4d;fill-opacity:1;fill-rule:nonzero;stroke:none"
             id="path240"
             inkscape:connector-curvature="0" /></g><g
           id="g242"
           transform="translate(536.4865,601.0303)"><path
             d="m 0,0 c -2.419,0 -3.907,-2.14 -3.907,-5.364 0,-3.566 1.643,-5.52 4.061,-5.52 2.419,0 4,2.45 4,5.427 C 4.154,-2.14 2.573,0 0,0 m 0.031,-13.922 c -4.093,0 -7.163,3.379 -7.163,8.465 0,5.332 3.163,8.495 7.256,8.495 4.154,0 7.255,-3.317 7.255,-8.402 0,-5.396 -3.162,-8.558 -7.348,-8.558"
             style="fill:#4c4d4d;fill-opacity:1;fill-rule:nonzero;stroke:none"
             id="path244"
             inkscape:connector-curvature="0" /></g><g
           id="g246"
           transform="translate(558.0314,599.046)"><path
             d="m 0,0 c -1.333,1.363 -2.511,1.984 -3.969,1.984 -2.325,0 -3.813,-2.078 -3.813,-5.395 0,-3.193 1.364,-5.488 3.907,-5.488 1.52,0 2.418,0.682 3.689,2.015 l 2.047,-2.015 c -1.271,-1.613 -2.883,-3.039 -5.83,-3.039 -3.968,0 -7.038,3.349 -7.038,8.434 0,5.395 3.163,8.526 7.132,8.526 2.387,0 4.248,-0.96 5.767,-2.759 z"
             style="fill:#4c4d4d;fill-opacity:1;fill-rule:nonzero;stroke:none"
             id="path248"
             inkscape:connector-curvature="0" /></g><g
           id="g250"
           transform="translate(572.7844,594.3946)"><path
             d="m 0,0 c -0.868,0.435 -1.984,0.713 -3.721,0.713 -2.046,0 -3.348,-0.93 -3.348,-2.418 0,-1.612 1.023,-2.698 3.131,-2.698 1.706,0 3.194,1.054 3.938,2.078 z m 0,-6.945 v 1.612 c -1.116,-1.116 -2.697,-1.953 -4.465,-1.953 -2.636,0 -5.642,1.488 -5.642,5.488 0,3.627 2.79,5.271 6.479,5.271 1.52,0 2.729,-0.217 3.628,-0.62 v 1.209 c 0,1.767 -1.085,2.759 -3.069,2.759 -1.674,0 -2.977,-0.31 -4.248,-1.023 l -1.241,2.419 c 1.551,0.961 3.287,1.457 5.581,1.457 3.628,0 6.109,-1.768 6.109,-5.457 V -6.945 Z"
             style="fill:#4c4d4d;fill-opacity:1;fill-rule:nonzero;stroke:none"
             id="path252"
             inkscape:connector-curvature="0" /></g><g
           id="g254"
           transform="translate(580.6564,587.4493)"><path
             d="m 0,0 v 20.929 l 3.193,1.675 V 0 Z"
             style="fill:#4c4d4d;fill-opacity:1;fill-rule:nonzero;stroke:none"
             id="path256"
             inkscape:connector-curvature="0" /></g><g
           id="g258"
           transform="translate(487.9084,561.7833)"><path
             d="m 0,0 c -0.713,0.961 -2.201,2.14 -3.814,2.14 -2.294,0 -3.535,-1.737 -3.535,-5.178 0,-4.094 1.302,-5.892 3.66,-5.892 1.518,0 2.851,1.024 3.689,2.077 z m -0.031,-11.534 v 1.551 c -1.178,-1.086 -2.543,-1.892 -4.248,-1.892 -3.504,0 -6.263,2.542 -6.263,8.743 0,5.581 3.038,8.217 6.418,8.217 1.644,0 3.193,-0.868 4.093,-1.86 v 6.201 l 3.162,1.643 v -22.603 z"
             style="fill:#4c4d4d;fill-opacity:1;fill-rule:nonzero;stroke:none"
             id="path260"
             inkscape:connector-curvature="0" /></g><path
           d="m 495.904,566.527 h 3.193 v -16.278 h -3.193 z m 1.613,2.109 c -1.148,0 -2.077,0.929 -2.077,2.046 0,1.147 0.929,2.077 2.077,2.077 1.116,0 2.046,-0.93 2.046,-2.077 0,-1.117 -0.93,-2.046 -2.046,-2.046"
           style="fill:#4c4d4d;fill-opacity:1;fill-rule:nonzero;stroke:none"
           id="path262"
           inkscape:connector-curvature="0" /><g
           id="g264"
           transform="translate(512.801,563.1475)"><path
             d="m 0,0 c -0.683,0.372 -1.396,0.589 -2.449,0.589 -2.016,0 -3.195,-1.426 -3.195,-4.186 v -9.301 H -8.837 V 3.38 h 3.193 V 1.829 c 0.745,1.085 2.109,1.892 3.721,1.892 1.303,0 2.109,-0.248 2.76,-0.682 z"
             style="fill:#4c4d4d;fill-opacity:1;fill-rule:nonzero;stroke:none"
             id="path266"
             inkscape:connector-curvature="0" /></g><g
           id="g268"
           transform="translate(522.2892,563.9844)"><path
             d="M 0,0 C -2.14,0 -3.441,-1.488 -3.721,-4.093 H 3.845 C 3.689,-1.86 2.636,0 0,0 m 6.977,-6.728 h -10.76 c 0.342,-3.131 2.109,-4.464 4.094,-4.464 1.363,0 2.449,0.496 3.534,1.301 l 1.891,-2.046 c -1.426,-1.365 -3.132,-2.139 -5.612,-2.139 -3.813,0 -7.038,3.069 -7.038,8.464 0,5.519 2.914,8.496 7.131,8.496 4.62,0 6.852,-3.752 6.852,-8.155 0,-0.589 -0.061,-1.116 -0.092,-1.457"
             style="fill:#4c4d4d;fill-opacity:1;fill-rule:nonzero;stroke:none"
             id="path270"
             inkscape:connector-curvature="0" /></g><g
           id="g272"
           transform="translate(543.5549,561.8448)"><path
             d="m 0,0 c -1.333,1.365 -2.511,1.984 -3.969,1.984 -2.325,0 -3.813,-2.077 -3.813,-5.394 0,-3.194 1.364,-5.488 3.907,-5.488 1.52,0 2.418,0.682 3.689,2.015 l 2.047,-2.015 c -1.271,-1.613 -2.883,-3.039 -5.83,-3.039 -3.968,0 -7.038,3.349 -7.038,8.434 0,5.395 3.163,8.526 7.132,8.526 2.387,0 4.248,-0.961 5.767,-2.759 z"
             style="fill:#4c4d4d;fill-opacity:1;fill-rule:nonzero;stroke:none"
             id="path274"
             inkscape:connector-curvature="0" /></g><g
           id="g276"
           transform="translate(557.2873,550.6524)"><path
             d="m 0,0 c -0.775,-0.435 -1.86,-0.744 -3.131,-0.744 -2.264,0 -3.659,1.395 -3.659,4.309 v 9.395 h -2.325 v 2.915 h 2.325 v 4.65 l 3.132,1.675 v -6.325 h 4.03 V 12.96 h -4.03 V 4.124 c 0,-1.52 0.496,-1.954 1.674,-1.954 0.838,0 1.767,0.31 2.356,0.651 z"
             style="fill:#4c4d4d;fill-opacity:1;fill-rule:nonzero;stroke:none"
             id="path278"
             inkscape:connector-curvature="0" /></g><g
           id="g280"
           transform="translate(567.7336,563.8292)"><path
             d="m 0,0 c -2.418,0 -3.906,-2.139 -3.906,-5.363 0,-3.567 1.643,-5.52 4.061,-5.52 2.418,0 4,2.449 4,5.426 C 4.155,-2.139 2.573,0 0,0 m 0.031,-13.921 c -4.093,0 -7.162,3.38 -7.162,8.464 0,5.334 3.162,8.496 7.255,8.496 4.155,0 7.256,-3.317 7.256,-8.402 0,-5.396 -3.163,-8.558 -7.349,-8.558"
             style="fill:#4c4d4d;fill-opacity:1;fill-rule:nonzero;stroke:none"
             id="path282"
             inkscape:connector-curvature="0" /></g><g
           id="g284"
           transform="translate(587.884,563.1475)"><path
             d="m 0,0 c -0.682,0.372 -1.396,0.589 -2.449,0.589 -2.016,0 -3.194,-1.426 -3.194,-4.186 v -9.301 H -8.837 V 3.38 h 3.194 V 1.829 c 0.745,1.085 2.109,1.892 3.721,1.892 1.302,0 2.109,-0.248 2.759,-0.682 z"
             style="fill:#4c4d4d;fill-opacity:1;fill-rule:nonzero;stroke:none"
             id="path286"
             inkscape:connector-curvature="0" /></g><path
           d="m 592.16,566.527 h 3.193 v -16.278 h -3.193 z m 1.613,2.109 c -1.148,0 -2.078,0.929 -2.078,2.046 0,1.147 0.93,2.077 2.078,2.077 1.116,0 2.047,-0.93 2.047,-2.077 0,-1.117 -0.931,-2.046 -2.047,-2.046"
           style="fill:#4c4d4d;fill-opacity:1;fill-rule:nonzero;stroke:none"
           id="path288"
           inkscape:connector-curvature="0" /><g
           id="g290"
           transform="translate(606.3596,563.9844)"><path
             d="M 0,0 C -2.14,0 -3.441,-1.488 -3.721,-4.093 H 3.845 C 3.689,-1.86 2.636,0 0,0 m 6.977,-6.728 h -10.76 c 0.342,-3.131 2.109,-4.464 4.094,-4.464 1.363,0 2.449,0.496 3.534,1.301 l 1.891,-2.046 c -1.426,-1.365 -3.132,-2.139 -5.612,-2.139 -3.813,0 -7.038,3.069 -7.038,8.464 0,5.519 2.914,8.496 7.131,8.496 4.62,0 6.852,-3.752 6.852,-8.155 0,-0.589 -0.061,-1.116 -0.092,-1.457"
             style="fill:#4c4d4d;fill-opacity:1;fill-rule:nonzero;stroke:none"
             id="path292"
             inkscape:connector-curvature="0" /></g><g
           id="g294"
           transform="translate(622.3537,549.9083)"><path
             d="m 0,0 c -2.201,0 -4.588,0.868 -6.231,2.077 l 1.457,2.418 c 1.519,-1.054 3.224,-1.611 4.744,-1.611 2.014,0 2.976,0.65 2.976,1.798 0,1.24 -1.426,1.829 -3.783,2.728 -3.503,1.364 -4.774,2.542 -4.774,5.116 0,2.914 2.294,4.434 5.549,4.434 2.046,0 4.062,-0.744 5.519,-1.799 L 4.062,12.712 c -1.333,0.931 -2.666,1.395 -4.216,1.395 -1.551,0 -2.233,-0.62 -2.233,-1.488 0,-0.806 0.558,-1.395 3.008,-2.356 C 4.248,8.867 6.108,7.875 6.108,4.806 6.108,1.209 3.194,0 0,0"
             style="fill:#4c4d4d;fill-opacity:1;fill-rule:nonzero;stroke:none"
             id="path296"
             inkscape:connector-curvature="0" /></g><g
           id="g298"
           transform="translate(524.05,675.8121)"><path
             d="m 0,0 c -0.032,0 -0.065,0.003 -0.098,0.007 -5.702,0.805 -10.539,1.826 -14.38,3.032 -0.365,0.113 -0.567,0.503 -0.451,0.868 0.114,0.364 0.497,0.569 0.868,0.451 C -10.294,3.176 -5.532,2.172 0.098,1.377 0.476,1.325 0.739,0.973 0.685,0.595 0.635,0.249 0.34,0 0,0"
             style="fill:#4c4d4d;fill-opacity:1;fill-rule:nonzero;stroke:none"
             id="path300"
             inkscape:connector-curvature="0" /></g><g
           id="g302"
           transform="translate(552.9572,673.6163)"><path
             d="m 0,0 c -5.795,0 -11.489,0.2 -16.921,0.591 -0.571,0.042 -1.001,0.539 -0.96,1.111 0.04,0.573 0.541,0.996 1.112,0.961 C -11.388,2.275 -5.745,2.077 0,2.077 c 17.691,0 33.924,1.866 43.423,4.989 0.544,0.18 1.132,-0.117 1.31,-0.662 C 44.912,5.859 44.617,5.273 44.07,5.095 34.375,1.904 17.9,0 0,0"
             style="fill:#4c4d4d;fill-opacity:1;fill-rule:nonzero;stroke:none"
             id="path304"
             inkscape:connector-curvature="0" /></g><g
           id="g306"
           transform="translate(552.9572,695.1358)"><path
             d="m 0,0 c -31.309,0 -50.533,-5.561 -50.533,-9.548 v -31.737 c 0,-3.988 19.224,-9.549 50.533,-9.549 31.312,0 50.537,5.562 50.537,9.549 V -9.548 C 50.537,-5.561 31.312,0 0,0 m 0,-53.604 c -26.487,0 -53.303,4.231 -53.303,12.318 v 31.738 c 0,8.086 26.816,12.317 53.303,12.317 26.491,0 53.306,-4.231 53.306,-12.317 V -41.285 C 53.306,-49.373 26.491,-53.604 0,-53.604"
             style="fill:#4c4d4d;fill-opacity:1;fill-rule:nonzero;stroke:none"
             id="path308"
             inkscape:connector-curvature="0" /></g><g
           id="g310"
           transform="translate(120.3869,438.2281)"><path
             d="m 0,0 c -0.795,0.005 -1.444,-0.635 -1.449,-1.43 -0.006,-0.796 0.635,-1.445 1.43,-1.45 0.795,-0.005 1.444,0.635 1.45,1.43 0,0.013 0,0.027 -0.001,0.04 -0.011,0.787 -0.652,1.42 -1.44,1.42 z m 4,-5.17 h -54.13 v 5.95 c 0,0.989 0.801,1.79 1.79,1.79 H 2.2 c 0.989,0 1.79,-0.801 1.79,-1.79 z m 0,-44.62 c 0,-0.989 -0.801,-1.79 -1.79,-1.79 h -50.55 c -0.989,0 -1.79,0.801 -1.79,1.79 V -6.64 H 3.99 Z M 2.21,4.34 h -50.55 c -1.977,0 -3.58,-1.603 -3.58,-3.58 v -50.52 c 0,-1.977 1.603,-3.58 3.58,-3.58 H 2.2 c 1.977,0 3.58,1.603 3.58,3.58 V 0.78 C 5.78,2.757 4.177,4.36 2.2,4.36 Z M -4.73,0.01 c -0.795,0 -1.44,-0.645 -1.44,-1.44 0,-0.795 0.645,-1.44 1.44,-1.44 0.795,0 1.44,0.645 1.44,1.44 0,0.795 -0.645,1.44 -1.44,1.44 m -4.73,0 c -0.795,0 -1.44,-0.645 -1.44,-1.44 0,-0.795 0.645,-1.44 1.44,-1.44 0.795,0 1.44,0.645 1.44,1.44 0,0.795 -0.645,1.44 -1.44,1.44 m -13.01,-33.13 h 11.79 c 0.536,0.134 0.861,0.678 0.727,1.213 -0.089,0.358 -0.369,0.637 -0.727,0.727 h -11.8 c -0.536,0.135 -1.079,-0.191 -1.213,-0.727 -0.134,-0.535 0.192,-1.079 0.727,-1.213 0.16,-0.04 0.327,-0.04 0.486,0 z m -12.44,0.49 c 0.177,-0.298 0.494,-0.483 0.84,-0.49 0.175,-0.001 0.348,0.044 0.5,0.13 l 10.2,5.9 -10.2,5.9 c -0.404,0.376 -1.037,0.354 -1.413,-0.051 -0.376,-0.405 -0.353,-1.037 0.051,-1.413 0.104,-0.097 0.227,-0.171 0.362,-0.216 l 7.3,-4.22 -7.3,-4.22 c -0.442,-0.282 -0.59,-0.859 -0.34,-1.32"
             style="fill:#4c4d4d;fill-opacity:1;fill-rule:nonzero;stroke:none"
             id="path312"
             inkscape:connector-curvature="0" /></g><path
           d="M 229.183,190.046 H 523.6 V 106.378 H 229.183 Z"
           style="fill:#ffffff;fill-opacity:1;fill-rule:nonzero;stroke:none"
           id="path314"
           inkscape:connector-curvature="0" /><path
           d="M 230.183,107.378 H 522.6 v 81.668 H 230.183 Z m 294.417,-2 H 228.183 v 85.668 H 524.6 Z"
           style="fill:#0e88ca;fill-opacity:1;fill-rule:nonzero;stroke:none"
           id="path316"
           inkscape:connector-curvature="0" /><g
           id="g318"
           transform="translate(336.1745,151.7022)"><path
             d="M 0,0 C -1.52,0 -2.853,-1.023 -3.689,-2.077 V -8.93 c 0.712,-0.962 2.201,-2.139 3.813,-2.139 2.294,0 3.535,1.736 3.535,5.177 C 3.659,-1.799 2.356,0 0,0 m 0.434,-14.015 c -1.643,0 -3.194,0.869 -4.093,1.861 v -5.861 l -3.162,-1.643 V 2.604 h 3.162 v -1.55 c 1.179,1.086 2.543,1.891 4.248,1.891 3.504,0 6.264,-2.542 6.264,-8.743 0,-5.582 -3.04,-8.217 -6.419,-8.217"
             style="fill:#0e88ca;fill-opacity:1;fill-rule:nonzero;stroke:none"
             id="path320"
             inkscape:connector-curvature="0" /></g><g
           id="g322"
           transform="translate(353.3795,151.6095)"><path
             d="m 0,0 c -2.419,0 -3.907,-2.14 -3.907,-5.364 0,-3.566 1.643,-5.52 4.062,-5.52 2.418,0 3.999,2.45 3.999,5.427 C 4.154,-2.14 2.573,0 0,0 m 0.031,-13.922 c -4.093,0 -7.163,3.379 -7.163,8.465 0,5.332 3.163,8.495 7.256,8.495 4.154,0 7.255,-3.317 7.255,-8.402 0,-5.396 -3.162,-8.558 -7.348,-8.558"
             style="fill:#0e88ca;fill-opacity:1;fill-rule:nonzero;stroke:none"
             id="path324"
             inkscape:connector-curvature="0" /></g><g
           id="g326"
           transform="translate(374.5221,149.5626)"><path
             d="m 0,0 c -0.713,0.961 -2.202,2.14 -3.814,2.14 -2.294,0 -3.535,-1.737 -3.535,-5.179 0,-4.092 1.303,-5.891 3.659,-5.891 1.519,0 2.853,1.024 3.69,2.077 z m -0.031,-11.534 v 1.55 c -1.178,-1.085 -2.543,-1.891 -4.248,-1.891 -3.504,0 -6.263,2.542 -6.263,8.743 0,5.581 3.038,8.217 6.418,8.217 1.644,0 3.193,-0.868 4.093,-1.86 v 6.201 l 3.162,1.643 v -22.603 z"
             style="fill:#0e88ca;fill-opacity:1;fill-rule:nonzero;stroke:none"
             id="path328"
             inkscape:connector-curvature="0" /></g><g
           id="g330"
           transform="translate(409.6457,138.0284)"><path
             d="m 0,0 v 9.209 c 0,3.286 -1.023,4.465 -3.132,4.465 -2.139,0 -3.131,-1.52 -3.131,-4.155 V 0 h -3.194 v 9.209 c 0,3.286 -1.022,4.465 -3.131,4.465 -2.14,0 -3.132,-1.52 -3.132,-4.155 V 0 h -3.193 v 16.278 h 3.193 v -1.55 c 0.806,1.178 2.201,1.891 3.876,1.891 2.201,0 3.597,-0.837 4.465,-2.388 1.178,1.457 2.449,2.388 4.991,2.388 3.784,0 5.581,-2.48 5.581,-7.286 L 3.193,0 Z"
             style="fill:#0e88ca;fill-opacity:1;fill-rule:nonzero;stroke:none"
             id="path332"
             inkscape:connector-curvature="0" /></g><g
           id="g334"
           transform="translate(426.756,144.9737)"><path
             d="m 0,0 c -0.868,0.435 -1.984,0.713 -3.721,0.713 -2.047,0 -3.348,-0.93 -3.348,-2.418 0,-1.612 1.023,-2.698 3.131,-2.698 1.706,0 3.194,1.054 3.938,2.078 z m 0,-6.945 v 1.612 c -1.116,-1.116 -2.697,-1.953 -4.465,-1.953 -2.636,0 -5.643,1.488 -5.643,5.488 0,3.627 2.791,5.271 6.48,5.271 1.52,0 2.729,-0.217 3.628,-0.62 v 1.209 c 0,1.767 -1.085,2.759 -3.069,2.759 -1.675,0 -2.977,-0.31 -4.248,-1.023 l -1.241,2.419 c 1.55,0.961 3.287,1.457 5.581,1.457 3.628,0 6.109,-1.768 6.109,-5.457 V -6.945 Z"
             style="fill:#0e88ca;fill-opacity:1;fill-rule:nonzero;stroke:none"
             id="path336"
             inkscape:connector-curvature="0" /></g><g
           id="g338"
           transform="translate(444.3634,138.0284)"><path
             d="m 0,0 v 9.209 c 0,3.286 -1.24,4.465 -3.349,4.465 -2.138,0 -3.348,-1.52 -3.348,-4.155 V 0 h -3.194 v 16.278 h 3.194 v -1.55 c 0.806,1.178 2.419,1.891 4.093,1.891 3.783,0 5.798,-2.48 5.798,-7.286 V 0 Z"
             style="fill:#0e88ca;fill-opacity:1;fill-rule:nonzero;stroke:none"
             id="path340"
             inkscape:connector-curvature="0" /></g><g
           id="g342"
           transform="translate(296.9547,172.7012)"><path
             d="m 0,0 c -0.795,0.006 -1.444,-0.635 -1.45,-1.43 -0.005,-0.796 0.636,-1.444 1.43,-1.45 0.796,-0.005 1.445,0.636 1.45,1.431 v 0.04 c -0.011,0.787 -0.653,1.42 -1.44,1.42 z m 4,-5.17 h -54.13 v 5.95 c 0,0.989 0.801,1.79 1.79,1.79 H 2.2 c 0.988,0 1.79,-0.801 1.79,-1.79 z m 0,-44.62 c 0,-0.988 -0.801,-1.789 -1.79,-1.789 h -50.55 c -0.989,0 -1.79,0.801 -1.79,1.789 V -6.64 H 3.99 Z M 2.21,4.341 h -50.55 c -1.977,0 -3.58,-1.604 -3.58,-3.58 V -49.76 c 0,-1.976 1.603,-3.58 3.58,-3.58 H 2.2 c 1.977,0 3.58,1.604 3.58,3.58 V 0.78 c 0,1.978 -1.603,3.58 -3.58,3.58 z m -6.94,-4.33 c -0.795,0 -1.44,-0.645 -1.44,-1.441 0,-0.795 0.645,-1.439 1.44,-1.439 0.795,0 1.44,0.644 1.44,1.439 0,0.796 -0.645,1.441 -1.44,1.441 m -4.73,0 c -0.795,0 -1.44,-0.645 -1.44,-1.441 0,-0.795 0.645,-1.439 1.44,-1.439 0.795,0 1.44,0.644 1.44,1.439 0,0.796 -0.645,1.441 -1.44,1.441 m -13.01,-33.13 h 11.79 c 0.536,0.134 0.861,0.677 0.727,1.213 -0.09,0.357 -0.369,0.636 -0.727,0.726 h -11.8 c -0.536,0.135 -1.079,-0.191 -1.213,-0.726 -0.134,-0.536 0.191,-1.079 0.727,-1.213 0.159,-0.04 0.326,-0.04 0.486,0 z m -12.44,0.489 c 0.177,-0.297 0.494,-0.482 0.84,-0.489 0.175,-0.002 0.348,0.043 0.5,0.13 l 10.2,5.899 -10.2,5.901 c -0.404,0.376 -1.037,0.353 -1.413,-0.051 -0.376,-0.406 -0.353,-1.038 0.051,-1.414 0.104,-0.097 0.227,-0.17 0.362,-0.215 l 7.3,-4.221 -7.3,-4.22 c -0.442,-0.282 -0.591,-0.859 -0.34,-1.32"
             style="fill:#4c4d4d;fill-opacity:1;fill-rule:nonzero;stroke:none"
             id="path344"
             inkscape:connector-curvature="0" /></g><g
           id="g346"
           transform="translate(475.9914,438.2281)"><path
             d="m 0,0 c -0.795,0.005 -1.444,-0.635 -1.449,-1.43 -0.006,-0.796 0.635,-1.445 1.429,-1.45 0.796,-0.005 1.445,0.635 1.451,1.43 v 0.04 C 1.419,-0.623 0.777,0.01 -0.01,0.01 Z m 4,-5.17 h -54.13 v 5.95 c 0,0.989 0.802,1.79 1.79,1.79 H 2.2 c 0.988,0 1.79,-0.801 1.79,-1.79 z m 0,-44.62 c 0,-0.989 -0.801,-1.79 -1.79,-1.79 h -50.55 c -0.988,0 -1.79,0.801 -1.79,1.79 V -6.64 H 3.99 Z M 2.21,4.34 h -50.55 c -1.977,0 -3.58,-1.603 -3.58,-3.58 v -50.52 c 0,-1.977 1.603,-3.58 3.58,-3.58 H 2.2 c 1.978,0 3.58,1.603 3.58,3.58 V 0.78 C 5.78,2.757 4.178,4.36 2.2,4.36 Z M -4.729,0.01 c -0.796,0 -1.441,-0.645 -1.441,-1.44 0,-0.795 0.645,-1.44 1.441,-1.44 0.794,0 1.439,0.645 1.439,1.44 0,0.795 -0.645,1.44 -1.439,1.44 m -4.731,0 c -0.795,0 -1.439,-0.645 -1.439,-1.44 0,-0.795 0.644,-1.44 1.439,-1.44 0.796,0 1.44,0.645 1.44,1.44 0,0.795 -0.644,1.44 -1.44,1.44 m -13.01,-33.13 h 11.79 c 0.535,0.134 0.862,0.678 0.727,1.213 -0.09,0.358 -0.369,0.637 -0.727,0.727 h -11.799 c -0.537,0.135 -1.08,-0.191 -1.214,-0.727 -0.134,-0.535 0.191,-1.079 0.727,-1.213 0.159,-0.04 0.326,-0.04 0.487,0 z m -12.44,0.49 c 0.177,-0.298 0.494,-0.483 0.841,-0.49 0.174,-0.001 0.346,0.044 0.5,0.13 l 10.199,5.9 -10.199,5.9 c -0.406,0.376 -1.037,0.354 -1.414,-0.051 -0.376,-0.405 -0.353,-1.037 0.051,-1.413 0.104,-0.097 0.228,-0.171 0.363,-0.216 l 7.299,-4.22 -7.299,-4.22 c -0.443,-0.282 -0.591,-0.859 -0.341,-1.32"
             style="fill:#4c4d4d;fill-opacity:1;fill-rule:nonzero;stroke:none"
             id="path348"
             inkscape:connector-curvature="0" /></g><path
           d="M 52.615,308.026 H 700.167 V 224.358 H 52.615 Z"
           style="fill:#ffffff;fill-opacity:1;fill-rule:nonzero;stroke:none"
           id="path350"
           inkscape:connector-curvature="0" /><path
           d="m 53.615,225.358 h 645.552 v 81.668 H 53.615 Z m 647.552,-2 H 51.615 v 85.668 h 649.552 z"
           style="fill:#b4b4b5;fill-opacity:1;fill-rule:nonzero;stroke:none"
           id="path352"
           inkscape:connector-curvature="0" /><g
           id="g354"
           transform="translate(319.5446,267.6055)"><path
             d="m 0,0 c -1.333,1.363 -2.511,1.984 -3.969,1.984 -2.325,0 -3.814,-2.078 -3.814,-5.395 0,-3.193 1.365,-5.488 3.908,-5.488 1.519,0 2.417,0.682 3.689,2.015 L 1.86,-8.899 c -1.271,-1.613 -2.883,-3.038 -5.829,-3.038 -3.968,0 -7.038,3.348 -7.038,8.433 0,5.395 3.163,8.526 7.132,8.526 2.387,0 4.247,-0.96 5.766,-2.759 z"
             style="fill:#4c4d4d;fill-opacity:1;fill-rule:nonzero;stroke:none"
             id="path356"
             inkscape:connector-curvature="0" /></g><g
           id="g358"
           transform="translate(331.3205,269.5899)"><path
             d="m 0,0 c -2.418,0 -3.906,-2.14 -3.906,-5.364 0,-3.566 1.643,-5.52 4.061,-5.52 2.419,0 4,2.45 4,5.427 C 4.155,-2.14 2.574,0 0,0 m 0.031,-13.922 c -4.093,0 -7.162,3.379 -7.162,8.465 0,5.332 3.162,8.495 7.255,8.495 4.155,0 7.256,-3.317 7.256,-8.402 0,-5.396 -3.163,-8.558 -7.349,-8.558"
             style="fill:#4c4d4d;fill-opacity:1;fill-rule:nonzero;stroke:none"
             id="path360"
             inkscape:connector-curvature="0" /></g><g
           id="g362"
           transform="translate(352.5255,256.0089)"><path
             d="m 0,0 v 9.209 c 0,3.286 -1.24,4.465 -3.349,4.465 -2.139,0 -3.348,-1.52 -3.348,-4.155 V 0 h -3.194 v 16.278 h 3.194 v -1.55 c 0.805,1.178 2.418,1.891 4.093,1.891 3.782,0 5.797,-2.48 5.797,-7.286 L 3.193,0 Z"
             style="fill:#4c4d4d;fill-opacity:1;fill-rule:nonzero;stroke:none"
             id="path364"
             inkscape:connector-curvature="0" /></g><g
           id="g366"
           transform="translate(367.9357,256.4122)"><path
             d="m 0,0 c -0.775,-0.435 -1.86,-0.744 -3.132,-0.744 -2.264,0 -3.659,1.394 -3.659,4.309 v 9.395 h -2.325 v 2.915 h 2.325 v 4.65 L -3.659,22.2 V 15.875 H 0.372 V 12.96 H -3.659 V 4.123 c 0,-1.519 0.496,-1.953 1.675,-1.953 0.837,0 1.767,0.31 2.356,0.651 z"
             style="fill:#4c4d4d;fill-opacity:1;fill-rule:nonzero;stroke:none"
             id="path368"
             inkscape:connector-curvature="0" /></g><g
           id="g370"
           transform="translate(381.5177,262.9542)"><path
             d="m 0,0 c -0.868,0.435 -1.984,0.713 -3.721,0.713 -2.047,0 -3.348,-0.93 -3.348,-2.418 0,-1.612 1.023,-2.698 3.131,-2.698 1.706,0 3.194,1.054 3.938,2.078 z m 0,-6.945 v 1.612 c -1.116,-1.116 -2.698,-1.953 -4.465,-1.953 -2.636,0 -5.643,1.488 -5.643,5.488 0,3.627 2.791,5.271 6.48,5.271 1.52,0 2.729,-0.217 3.628,-0.62 v 1.209 c 0,1.767 -1.085,2.759 -3.07,2.759 -1.674,0 -2.976,-0.31 -4.247,-1.023 l -1.241,2.419 c 1.55,0.961 3.287,1.457 5.581,1.457 3.628,0 6.108,-1.768 6.108,-5.457 V -6.945 Z"
             style="fill:#4c4d4d;fill-opacity:1;fill-rule:nonzero;stroke:none"
             id="path372"
             inkscape:connector-curvature="0" /></g><path
           d="m 389.39,272.287 h 3.193 v -16.278 h -3.193 z m 1.612,2.109 c -1.147,0 -2.078,0.929 -2.078,2.045 0,1.148 0.931,2.079 2.078,2.079 1.116,0 2.046,-0.931 2.046,-2.079 0,-1.116 -0.93,-2.045 -2.046,-2.045"
           style="fill:#4c4d4d;fill-opacity:1;fill-rule:nonzero;stroke:none"
           id="path374"
           inkscape:connector-curvature="0" /><g
           id="g376"
           transform="translate(407.34,256.0089)"><path
             d="m 0,0 v 9.209 c 0,3.286 -1.24,4.465 -3.349,4.465 -2.139,0 -3.348,-1.52 -3.348,-4.155 V 0 h -3.194 v 16.278 h 3.194 v -1.55 c 0.806,1.178 2.419,1.891 4.093,1.891 3.783,0 5.797,-2.48 5.797,-7.286 L 3.193,0 Z"
             style="fill:#4c4d4d;fill-opacity:1;fill-rule:nonzero;stroke:none"
             id="path378"
             inkscape:connector-curvature="0" /></g><g
           id="g380"
           transform="translate(421.258,269.7442)"><path
             d="M 0,0 C -2.139,0 -3.441,-1.488 -3.721,-4.093 H 3.845 C 3.69,-1.86 2.636,0 0,0 M 6.977,-6.729 H -3.782 c 0.341,-3.13 2.108,-4.464 4.093,-4.464 1.364,0 2.449,0.496 3.534,1.302 l 1.891,-2.047 c -1.425,-1.363 -3.132,-2.138 -5.612,-2.138 -3.813,0 -7.038,3.069 -7.038,8.465 0,5.518 2.915,8.495 7.132,8.495 4.619,0 6.851,-3.752 6.851,-8.155 0,-0.588 -0.061,-1.116 -0.092,-1.458"
             style="fill:#4c4d4d;fill-opacity:1;fill-rule:nonzero;stroke:none"
             id="path382"
             inkscape:connector-curvature="0" /></g><g
           id="g384"
           transform="translate(441.1291,268.9073)"><path
             d="m 0,0 c -0.683,0.372 -1.396,0.589 -2.45,0.589 -2.015,0 -3.194,-1.426 -3.194,-4.186 v -9.301 H -8.837 V 3.38 h 3.193 V 1.829 c 0.745,1.086 2.109,1.892 3.721,1.892 1.303,0 2.109,-0.248 2.76,-0.683 z"
             style="fill:#4c4d4d;fill-opacity:1;fill-rule:nonzero;stroke:none"
             id="path386"
             inkscape:connector-curvature="0" /></g></g></g></g></svg>